<?xml version="1.0" standalone="no"?>
<!DOCTYPE svg PUBLIC "-//W3C//DTD SVG 20010904//EN"
 "http://www.w3.org/TR/2001/REC-SVG-20010904/DTD/svg10.dtd">
<svg version="1.0" xmlns="http://www.w3.org/2000/svg"
 width="640.000000pt" height="640.000000pt" viewBox="0 0 640.000000 640.000000"
 preserveAspectRatio="xMidYMid meet">

<g transform="translate(0.000000,640.000000) scale(0.100000,-0.100000)"
fill="#ff3300" stroke="none">
<path d="M1089 3966 c-90 -37 -116 -57 -274 -216 -155 -155 -157 -160 -69
-140 157 36 387 28 578 -21 175 -44 171 -46 338 119 76 74 136 137 134 139 -2
2 -62 19 -132 38 -71 19 -187 50 -258 69 -157 44 -234 47 -317 12z"/>
<path d="M4835 3835 c-16 -15 -25 -36 -25 -55 0 -19 9 -40 25 -55 15 -16 36
-25 55 -25 80 0 109 109 39 145 -40 21 -66 19 -94 -10z"/>
<path d="M4635 3838 c-27 -15 -45 -38 -45 -60 0 -27 45 -68 73 -68 31 0 67 35
67 64 0 48 -56 86 -95 64z"/>
<path d="M4410 3750 c-24 -24 -25 -38 -4 -68 18 -27 55 -29 77 -4 23 26 21 58
-5 76 -30 21 -44 20 -68 -4z"/>
<path d="M5055 3716 c-41 -44 -45 -84 -15 -134 66 -109 240 -29 200 92 -16 48
-43 68 -100 74 -48 4 -52 3 -85 -32z"/>
<path d="M2407 3673 c-17 -28 -81 -861 -67 -876 4 -4 47 -7 96 -5 l89 3 13
280 c7 153 16 283 21 288 4 4 53 -97 108 -225 l100 -233 69 -3 69 -3 64 153
c36 84 82 191 104 238 l40 85 8 -54 c4 -30 10 -138 13 -240 4 -103 9 -210 12
-238 l5 -53 95 0 c89 0 94 1 94 21 0 22 -13 217 -30 459 -11 146 -27 318 -36
378 l-5 32 -89 0 -89 0 -27 -46 c-21 -35 -147 -312 -211 -461 -9 -21 -20 -15
-34 20 -21 54 -144 327 -184 410 l-38 77 -93 0 c-51 0 -95 -3 -97 -7z"/>
<path d="M4269 3609 c-10 -20 -9 -25 11 -41 26 -21 39 -20 54 5 8 12 8 22 0
35 -17 26 -51 27 -65 1z"/>
<path d="M770 3583 c-30 -8 -75 -18 -100 -22 -36 -7 -54 -19 -97 -65 -30 -32
-56 -72 -62 -93 -7 -22 -11 -156 -11 -323 l0 -285 385 385 c248 248 380 387
372 391 -52 29 -392 38 -487 12z"/>
<path d="M1563 3214 c-211 -210 -383 -385 -383 -389 0 -5 2 -6 5 -3 3 3 31 -1
63 -8 66 -16 372 -19 418 -5 16 5 58 15 93 22 55 11 70 19 109 58 77 80 77 77
80 341 2 129 2 264 0 300 l-3 65 -382 -381z"/>
<path d="M4415 3471 c-27 -5 -69 -14 -92 -20 l-43 -12 0 -324 0 -325 95 0 95
0 2 263 3 262 45 3 c69 5 108 -6 128 -35 14 -23 18 -61 22 -258 l5 -230 93 -3
94 -3 -4 253 c-3 241 -5 255 -27 301 -26 52 -65 90 -120 114 -42 18 -218 26
-296 14z"/>
<path d="M5544 3462 c-74 -26 -96 -43 -122 -94 -45 -91 -18 -205 63 -260 22
-15 72 -39 111 -53 93 -34 114 -50 114 -84 0 -22 -7 -31 -30 -41 -38 -16 -156
-8 -220 14 -24 8 -46 14 -47 12 -9 -9 -31 -142 -25 -148 4 -4 36 -15 72 -24
48 -12 93 -15 175 -12 126 5 167 21 225 84 34 37 35 42 35 116 0 70 -2 79 -31
114 -36 45 -91 79 -192 118 -75 29 -98 52 -87 87 13 40 104 51 201 25 l52 -14
14 73 15 73 -36 12 c-20 6 -81 14 -136 16 -80 4 -110 1 -151 -14z"/>
<path d="M3510 3468 c-7 -59 0 -458 9 -500 25 -118 109 -184 249 -195 76 -6
212 7 285 28 l37 10 -2 327 -3 327 -90 0 -90 0 -5 -265 -5 -265 -55 -3 c-69
-4 -115 18 -130 62 -5 17 -11 130 -12 251 l-3 220 -92 3 c-51 1 -93 1 -93 0z"/>
<path d="M5040 3130 l0 -340 95 0 95 0 -2 338 -3 337 -92 3 -93 3 0 -341z"/>
<path d="M920 2810 c-35 -18 -277 -256 -269 -264 3 -3 184 -52 228 -61 9 -2
75 -21 146 -41 183 -53 262 -53 366 -2 63 32 98 61 232 195 144 144 173 184
114 155 -41 -19 -122 -27 -282 -26 -168 1 -252 11 -355 44 -77 25 -134 25
-180 0z"/>
<path d="M5074 2701 c-44 -27 -60 -71 -45 -122 27 -91 152 -108 201 -27 24 39
25 69 5 108 -29 57 -104 76 -161 41z"/>
<path d="M5794 2654 c-9 -34 18 -64 44 -48 22 14 27 41 12 59 -20 24 -49 18
-56 -11z"/>
<path d="M5405 2560 c-61 -11 -78 -112 -23 -141 43 -23 68 -21 98 10 35 34 38
68 10 103 -23 29 -43 36 -85 28z"/>
<path d="M5643 2560 c-50 -20 -32 -100 23 -100 50 0 70 54 34 90 -22 22 -25
23 -57 10z"/>
</g>
</svg>
